<svg width="24" height="24" viewBox="0 0 24 24" fill="none" xmlns="http://www.w3.org/2000/svg">
<g id="microphone-with-wire-svgrepo-com 1">
<g id="Group">
<path id="Vector" d="M12.8634 3.6954V3.69538C12.8634 1.93067 14.2941 0.5 16.0585 0.5C17.8236 0.5 19.2539 1.93065 19.2539 3.6954C19.2539 5.46005 17.8236 6.89058 16.0585 6.89058C14.2941 6.89058 12.8634 5.46004 12.8634 3.6954Z" stroke="#D9D9D9"/>
<path id="Vector_2" d="M8.49203 13.1965L8.47183 13.2151L8.45379 13.2358C8.3537 13.3507 8.21421 13.4187 8.0612 13.4187C7.77221 13.4187 7.53668 13.1835 7.53668 12.8937C7.53668 12.7504 7.57874 12.6329 7.72842 12.4231L12.1947 6.47784C12.6791 7.14926 13.3345 7.68966 14.0973 8.03504L8.49203 13.1965Z" stroke="#D9D9D9"/>
<path id="Vector_3" d="M5.37622 19.0277L5.3758 19.0274C5.0022 18.7409 4.79142 18.3551 4.75276 17.8963L4.75274 17.8961C4.69712 17.2386 4.99314 16.4742 5.40468 15.7741C5.80693 15.0898 6.27242 14.5454 6.44715 14.3506L6.49312 14.2994L6.52353 14.2376L6.63715 14.0067C6.71619 14.0989 6.80635 14.1925 6.90898 14.2847L6.90944 14.2851C6.90992 14.2856 6.91041 14.286 6.91089 14.2864L6.69815 14.3606L6.57315 14.4042L6.4861 14.5039C6.20991 14.8203 5.79699 15.3526 5.46061 15.9428C5.1374 16.5098 4.8266 17.2287 4.88275 17.8856L4.88286 17.8869C4.92065 18.3161 5.11326 18.66 5.45559 18.9229L5.45559 18.9229C5.8634 19.2361 6.34874 19.2908 6.7955 19.2311C7.23833 19.1719 7.68746 18.996 8.09278 18.7877C8.89893 18.3735 9.64129 17.7735 10.0054 17.4264C10.1011 17.3418 11.0164 16.5424 12.1672 15.991L12.1675 15.9908C13.2394 15.4762 14.027 15.4055 14.5944 15.5123C15.1602 15.6188 15.5651 15.9127 15.8534 16.2351L15.8535 16.2352C16.2974 16.7314 16.4905 17.3142 16.43 17.9991L16.43 17.9992C16.3253 19.1891 15.4292 20.51 14.446 21.6044C13.4836 22.6756 12.5289 23.4314 12.4589 23.4863L12.4586 23.4866C12.4475 23.4953 12.4333 23.5 12.4199 23.5C12.3991 23.5 12.3813 23.4915 12.3684 23.475L12.3682 23.4748C12.3458 23.4462 12.3508 23.4044 12.3793 23.382C12.893 22.9781 13.81 22.1591 14.6244 21.1975C15.0322 20.716 15.4224 20.1892 15.7237 19.6528C16.0225 19.1208 16.2503 18.5503 16.3001 17.9868L16.3002 17.9857C16.3547 17.3521 16.1773 16.7933 15.7552 16.3227C15.2409 15.7476 14.5762 15.5702 13.926 15.6083C13.294 15.6453 12.6569 15.8843 12.1106 16.1597C11.5582 16.4381 11.0624 16.7725 10.7056 17.0359C10.5263 17.1683 10.3799 17.2844 10.2765 17.3689C10.2248 17.4112 10.1837 17.4457 10.1546 17.4705L10.1201 17.5002L10.1099 17.509L10.1069 17.5117L10.106 17.5124L10.0963 17.5208L10.0872 17.5297C10.0401 17.5752 9.25547 18.3184 8.24893 18.8539C7.20692 19.4082 6.15517 19.6262 5.37622 19.0277Z" stroke="#D9D9D9"/>
</g>
</g>
</svg>
